<?xml version="1.0" encoding="iso-8859-1"?>
<!-- Generator: Adobe Illustrator 19.0.0, SVG Export Plug-In . SVG Version: 6.00 Build 0)  -->
<svg version="1.1" id="Layer_1" xmlns="http://www.w3.org/2000/svg" xmlns:xlink="http://www.w3.org/1999/xlink" x="0px" y="0px"
	 width="85px" height="85px" viewBox="0 0 502.006 502.006" style="enable-background:new 0 0 502.006 502.006;" 
	 fill="rgb(169, 157, 201)" xml:space="preserve">
<g>
	<g>
		<g>
			<path d="M322.347,451.605c-5.43-1.023-10.658,2.542-11.683,7.97l-5.39,28.527c-1.025,5.427,2.543,10.658,7.97,11.683
				c0.628,0.118,1.252,0.176,1.868,0.176c4.712,0,8.909-3.345,9.815-8.146l5.39-28.527
				C331.342,457.861,327.774,452.63,322.347,451.605z"/>
			<path d="M394.926,5.931C466.16,19.39,323.692-7.532,394.926,5.931L394.926,5.931z"/>
			<path d="M394.926,5.931c-71.234-13.463-140.137,33.546-153.595,104.78c-6.66,35.249-1.347,85.222,13.534,127.313
				c12.667,35.829,30.453,62.01,51.521,76.543c-7.619,5.921-12.762,14.305-14.57,23.871c-0.492,2.605,0.071,5.301,1.565,7.492
				c1.495,2.19,3.798,3.698,6.404,4.19l30.471,5.757l-11.941,63.207c-1.025,5.427,2.543,10.657,7.97,11.683
				c0.627,0.118,1.252,0.176,1.868,0.176c4.712,0,8.908-3.346,9.815-8.146l11.941-63.207c4.992,0.943,10.918,3.089,15.52-0.049
				c2.191-1.494,3.698-3.798,4.19-6.404c1.806-9.563,0.078-19.241-4.852-27.533c24.916-5.847,51.028-23.744,75.891-52.478
				c29.211-33.76,52.389-78.35,59.049-113.599C513.164,88.292,466.16,19.39,394.926,5.931z M333.969,336.225l-17.957-3.393
				c1.069-1.21,2.297-2.295,3.666-3.228c4.322-2.95,9.533-4.036,14.675-3.067h0.001h0.002c0.469,0.089,0.925,0.211,1.381,0.331
				c4.553,1.201,8.484,3.949,11.163,7.877c0.934,1.368,1.681,2.826,2.235,4.343L333.969,336.225z M480.054,155.813
				c-6.052,32.031-27.452,72.942-54.521,104.225c-29.951,34.614-61.832,51.69-87.465,46.848h-0.001c0,0-0.001,0-0.002,0
				c-25.634-4.844-49.087-32.374-64.344-75.529c-13.79-39.003-18.79-84.901-12.738-116.933
				c10.096-53.438,56.985-90.79,109.491-90.79c6.839,0,13.779,0.635,20.739,1.949C451.611,36.994,491.465,95.416,480.054,155.813z"
				/>
			<path d="M209.867,303.134C209.85,303.181,209.85,303.18,209.867,303.134L209.867,303.134z"/>
			<path d="M224.22,186.37c-11.575-61.268-70.837-101.696-132.103-90.12c-29.679,5.607-55.397,22.437-72.419,47.388
				c-17.021,24.951-23.307,55.037-17.7,84.716c5.697,30.154,25.5,68.27,50.449,97.104c20.667,23.886,42.388,39.049,63.258,44.537
				c-3.609,6.943-4.796,14.839-3.32,22.648c0.492,2.606,2,4.91,4.191,6.404c4.007,2.735,8.466,1.381,12.815,0.56l15.562,82.369
				c0.907,4.8,5.103,8.146,9.815,8.146c0.616,0,1.241-0.058,1.868-0.176c5.427-1.025,8.995-6.256,7.97-11.683l-15.562-82.369
				l24.368-4.604c5.427-1.025,8.995-6.256,7.97-11.683c-1.514-8.016-5.664-14.875-11.376-19.869
				c17.436-12.721,32.135-34.758,42.667-64.544c-1.4,3.961-2.668,7.546-2.807,7.939c0.106-0.299,0.902-2.55,2.809-7.946
				c2.721-7.697,3.791-10.723,3.901-11.033c-0.155,0.437-2.126,6.014-3.897,11.021C225.387,259.228,229.916,216.521,224.22,186.37z
				 M145.33,376.242l-11.433,2.16c0.16-0.268,0.328-0.531,0.505-0.791c2.274-3.333,5.711-5.582,9.676-6.331
				c0.102-0.02,0.205-0.026,0.307-0.044c0.844-0.142,1.69-0.223,2.53-0.223c3.007,0,5.944,0.899,8.482,2.632
				c0.26,0.177,0.513,0.361,0.759,0.552L145.33,376.242z M140.364,351.628c-21.207,4.004-47.74-10.302-72.793-39.256
				c-22.807-26.358-40.832-60.795-45.921-87.731c-4.616-24.43,0.559-49.194,14.569-69.732s35.181-34.391,59.61-39.006
				c5.814-1.099,11.604-1.628,17.317-1.628c43.837,0,82.992,31.191,91.421,75.808C214.819,244.35,187.525,342.718,140.364,351.628z"
				/>
			<path d="M216.577,284.154C216.589,284.118,216.59,284.118,216.577,284.154L216.577,284.154z"/>
			<path d="M389.221,43.409c-52.362-9.889-103.38,26.627-113.729,81.407c-1.025,5.427,2.543,10.658,7.97,11.683
				c0.628,0.118,1.252,0.176,1.868,0.176c4.712,0,8.908-3.346,9.815-8.145c8.302-43.944,48.844-73.317,90.363-65.468
				c5.431,1.019,10.658-2.543,11.683-7.97C398.216,49.665,394.648,44.434,389.221,43.409z"/>
			<path d="M422.471,56.707c-4.638-3.001-10.829-1.676-13.829,2.961c-3.002,4.636-1.676,10.827,2.96,13.828
				c10.687,6.918,19.627,16.689,25.853,28.254c1.806,3.357,5.253,5.263,8.814,5.263c1.6,0,3.224-0.385,4.732-1.197
				c4.863-2.618,6.683-8.683,4.065-13.545C447.249,77.748,435.977,65.45,422.471,56.707z"/>
			<path d="M139.566,134.864c-5.091-2.144-10.954,0.245-13.098,5.335c-2.143,5.09,0.245,10.953,5.335,13.097
				c8.873,3.737,17.011,9.829,23.533,17.618c1.978,2.362,4.815,3.58,7.672,3.58c2.265,0,4.542-0.766,6.415-2.333
				c4.234-3.546,4.793-9.853,1.247-14.087C162.114,147.856,151.358,139.83,139.566,134.864z"/>
			<path d="M97.373,130.248c-20.744,3.919-38.515,16.462-50.038,35.319c-11.326,18.534-15.247,41.003-11.04,63.27
				c0.907,4.8,5.103,8.146,9.815,8.146c0.615,0,1.24-0.058,1.868-0.175c5.427-1.026,8.995-6.256,7.97-11.683
				c-3.285-17.386-0.283-34.833,8.453-49.128c8.538-13.972,21.566-23.24,36.685-26.096c5.427-1.026,8.996-6.256,7.97-11.683
				S102.799,129.225,97.373,130.248z"/>
		</g>
	</g>
</g>
<g>
</g>
<g>
</g>
<g>
</g>
<g>
</g>
<g>
</g>
<g>
</g>
<g>
</g>
<g>
</g>
<g>
</g>
<g>
</g>
<g>
</g>
<g>
</g>
<g>
</g>
<g>
</g>
<g>
</g>
</svg>
