<svg xmlns="http://www.w3.org/2000/svg" 
    xmlns:xlink="http://www.w3.org/1999/xlink" 
    version="1.1" 
    x="0px" 
    y="0px" 
    viewBox="0 0 100 100"
    width="85px" height="85px"
    enable-background="new 0 0 100 100" 
    xml:space="preserve">

<g>
    <path fill="#000000" d="M46.133,30.052c0.044-0.02,0.104-0.041,0.143-0.061c2.225-1.096,3.145-3.799,2.049-6.025   c-0.764-1.549-2.312-2.512-4.039-2.512c-0.692,0-1.361,0.156-1.985,0.464c-0.13,0.063-0.273,0.143-0.427,0.233   c0.35-1.109,0.269-2.291-0.247-3.338c-0.531-1.078-1.45-1.885-2.589-2.271c-0.469-0.16-0.956-0.24-1.448-0.24   c-1.904,0-3.595,1.199-4.232,2.988c-0.104-0.286-0.175-0.463-0.181-0.475c-0.764-1.55-2.311-2.513-4.039-2.513   c-0.693,0-1.361,0.156-1.986,0.464c-1.078,0.531-1.885,1.451-2.271,2.589s-0.308,2.358,0.224,3.436   c0.017,0.034,0.048,0.088,0.072,0.133c-0.448-0.145-0.911-0.223-1.381-0.223c-1.928,0-3.64,1.227-4.26,3.053   c-0.799,2.35,0.463,4.91,2.812,5.708c0.106,0.036,0.238,0.072,0.373,0.109c-0.048,0.021-0.113,0.045-0.156,0.066   c-1.078,0.531-1.886,1.45-2.272,2.588c-0.387,1.139-0.308,2.359,0.224,3.438c0.764,1.55,2.311,2.513,4.039,2.513   c0.659,0,1.295-0.146,1.895-0.425c-0.211,0.985-0.107,2.004,0.345,2.922c0.531,1.078,1.45,1.885,2.589,2.271   c0.469,0.16,0.956,0.24,1.448,0.24c1.747,0,3.309-1.013,4.049-2.561c0.78,1.491,2.292,2.417,3.983,2.417   c0.692,0,1.36-0.156,1.986-0.464c2.226-1.096,3.145-3.799,2.049-6.025c-0.022-0.045-0.059-0.109-0.094-0.173   c0.225,0.104,0.361,0.162,0.372,0.166c0.469,0.16,0.956,0.24,1.449,0.24c1.928,0,3.64-1.227,4.26-3.053   C49.676,33.404,48.44,30.875,46.133,30.052z M43.625,24.609c0.734-0.364,1.652-0.039,2.008,0.682   c0.365,0.742,0.059,1.644-0.684,2.009c-0.893,0.44-4.206,1.314-6.058,1.301C39.863,27.32,42.473,25.176,43.625,24.609z    M36.169,20.318c0.207-0.608,0.777-1.017,1.42-1.017c0.163,0,0.325,0.026,0.483,0.08c0.379,0.129,0.686,0.398,0.862,0.758   c0.178,0.359,0.204,0.766,0.075,1.145c-0.416,1.222-2.22,4.107-3.361,5.226C35.424,24.927,35.754,21.54,36.169,20.318z    M28.477,19.458c0.209-0.104,0.431-0.155,0.66-0.155c0.577,0,1.093,0.321,1.348,0.839c0.57,1.156,1.335,4.471,1.318,6.069   c-1.278-0.961-3.439-3.588-4.009-4.745C27.429,20.725,27.734,19.823,28.477,19.458z M22.448,27.865   c-0.177-0.359-0.203-0.767-0.074-1.146c0.207-0.608,0.778-1.018,1.42-1.018c0.164,0,0.326,0.026,0.483,0.08   c1.216,0.414,4.08,2.203,5.209,3.346c-0.316,0.046-0.762,0.082-1.374,0.082c-1.877,0-4.097-0.348-4.801-0.587   C22.932,28.493,22.626,28.224,22.448,27.865z M25.214,37.021c-0.735,0.361-1.652,0.04-2.009-0.684   c-0.178-0.359-0.204-0.766-0.075-1.145c0.129-0.38,0.398-0.687,0.758-0.863c0.882-0.434,4.088-1.301,5.983-1.301   c0.025,0,0.051,0,0.074,0C28.974,34.309,26.365,36.453,25.214,37.021z M32.249,41.168c-0.26,0.763-1.121,1.2-1.903,0.937   c-0.379-0.129-0.686-0.398-0.862-0.758c-0.178-0.359-0.204-0.766-0.075-1.145c0.416-1.222,2.22-4.107,3.361-5.226   C32.994,36.56,32.664,39.946,32.249,41.168z M33.565,32.637c-1.047-0.355-1.605-1.491-1.25-2.537   c0.355-1.047,1.491-1.605,2.537-1.25c1.047,0.355,1.605,1.491,1.25,2.537C35.747,32.434,34.611,32.992,33.565,32.637z    M39.522,41.886c-0.735,0.359-1.652,0.039-2.009-0.683c-0.569-1.157-1.334-4.473-1.317-6.071c1.277,0.961,3.439,3.589,4.009,4.745   C40.57,40.619,40.264,41.521,39.522,41.886z M46.044,34.768c-0.261,0.764-1.131,1.199-1.903,0.938   c-1.216-0.414-4.08-2.203-5.209-3.346c0.316-0.046,0.762-0.082,1.374-0.082c1.877,0,4.097,0.348,4.801,0.587   c0.38,0.129,0.686,0.398,0.863,0.757C46.146,33.98,46.173,34.388,46.044,34.768z"></path>
    <path fill="#000000" d="M82.614,37.623c0.038-0.017,0.09-0.035,0.123-0.052c1.92-0.946,2.714-3.279,1.769-5.201   c-0.659-1.337-1.995-2.168-3.486-2.168c-0.598,0-1.175,0.135-1.714,0.4c-0.111,0.055-0.235,0.123-0.368,0.201   c0.302-0.957,0.232-1.977-0.213-2.881c-0.459-0.931-1.252-1.626-2.234-1.96c-0.405-0.139-0.825-0.208-1.25-0.208   c-1.644,0-3.103,1.035-3.653,2.579c-0.09-0.246-0.151-0.399-0.156-0.409c-0.659-1.338-1.994-2.169-3.486-2.169   c-0.598,0-1.175,0.135-1.714,0.4c-0.931,0.459-1.627,1.253-1.961,2.234c-0.334,0.982-0.266,2.036,0.193,2.966   c0.015,0.029,0.041,0.075,0.062,0.114c-0.387-0.125-0.787-0.192-1.192-0.192c-1.663,0-3.142,1.059-3.677,2.636   c-0.689,2.027,0.4,4.237,2.427,4.926c0.092,0.031,0.206,0.062,0.322,0.095c-0.041,0.019-0.098,0.039-0.135,0.058   c-0.931,0.458-1.628,1.252-1.962,2.233c-0.333,0.982-0.265,2.036,0.193,2.967c0.659,1.338,1.994,2.169,3.486,2.169   c0.569,0,1.117-0.126,1.635-0.366c-0.182,0.851-0.092,1.729,0.298,2.521c0.459,0.931,1.252,1.627,2.234,1.961   c0.405,0.138,0.825,0.207,1.25,0.207c1.508,0,2.856-0.874,3.495-2.21c0.673,1.287,1.978,2.086,3.438,2.086   c0.598,0,1.175-0.135,1.715-0.4c1.921-0.945,2.714-3.278,1.769-5.2c-0.02-0.039-0.051-0.095-0.081-0.149   c0.193,0.089,0.312,0.14,0.321,0.144c0.404,0.138,0.825,0.207,1.251,0.207c1.663,0,3.142-1.059,3.677-2.635   C85.673,40.517,84.606,38.334,82.614,37.623z M80.45,32.926c0.634-0.314,1.426-0.034,1.732,0.588   c0.315,0.641,0.051,1.419-0.59,1.734c-0.771,0.38-3.63,1.135-5.229,1.123C77.203,35.266,79.455,33.415,80.45,32.926z    M74.015,29.222c0.179-0.524,0.671-0.877,1.226-0.877c0.141,0,0.28,0.022,0.417,0.069c0.327,0.111,0.592,0.344,0.744,0.653   c0.153,0.311,0.177,0.661,0.065,0.988c-0.359,1.055-1.916,3.545-2.901,4.511C73.371,33.199,73.656,30.276,74.015,29.222z    M67.375,28.479c0.181-0.09,0.372-0.134,0.569-0.134c0.499,0,0.943,0.277,1.164,0.724c0.492,0.998,1.151,3.859,1.138,5.238   c-1.104-0.829-2.969-3.097-3.46-4.095C66.471,29.572,66.734,28.795,67.375,28.479z M62.172,35.736   c-0.152-0.311-0.176-0.662-0.064-0.99c0.179-0.524,0.672-0.878,1.226-0.878c0.142,0,0.282,0.022,0.418,0.069   c1.049,0.357,3.521,1.901,4.495,2.888c-0.272,0.039-0.657,0.07-1.186,0.07c-1.62,0-3.536-0.3-4.144-0.507   C62.589,36.278,62.325,36.045,62.172,35.736z M64.559,43.638c-0.635,0.312-1.426,0.035-1.733-0.59   c-0.153-0.31-0.177-0.661-0.065-0.987c0.111-0.328,0.345-0.593,0.654-0.745c0.762-0.375,3.528-1.123,5.165-1.123   c0.021,0,0.043,0,0.063,0C67.804,41.297,65.553,43.148,64.559,43.638z M70.631,47.218c-0.224,0.658-0.968,1.036-1.643,0.809   c-0.327-0.111-0.592-0.344-0.744-0.654c-0.153-0.311-0.177-0.661-0.065-0.988c0.359-1.054,1.916-3.545,2.901-4.51   C71.274,43.24,70.989,46.163,70.631,47.218z M71.768,39.854c-0.904-0.307-1.386-1.287-1.079-2.19s1.287-1.386,2.189-1.078   c0.904,0.307,1.386,1.287,1.079,2.189C73.65,39.679,72.67,40.161,71.768,39.854z M76.909,47.837   c-0.635,0.311-1.427,0.034-1.734-0.589c-0.491-0.999-1.151-3.86-1.137-5.24c1.103,0.829,2.969,3.098,3.46,4.096   C77.813,46.744,77.549,47.522,76.909,47.837z M82.538,41.693c-0.226,0.659-0.977,1.035-1.644,0.81   c-1.049-0.357-3.521-1.901-4.495-2.888c0.272-0.04,0.657-0.071,1.186-0.071c1.62,0,3.536,0.3,4.144,0.507   c0.328,0.111,0.592,0.344,0.745,0.653C82.626,41.014,82.649,41.365,82.538,41.693z"></path>
    <path fill="#000000" d="M66.11,15.746c0.032-0.014,0.076-0.029,0.104-0.044c1.618-0.797,2.288-2.764,1.491-4.384   c-0.556-1.127-1.682-1.827-2.938-1.827c-0.504,0-0.99,0.113-1.444,0.338c-0.094,0.046-0.199,0.104-0.311,0.169   c0.254-0.807,0.195-1.666-0.18-2.428c-0.387-0.784-1.055-1.37-1.883-1.652c-0.342-0.116-0.696-0.175-1.054-0.175   c-1.386,0-2.615,0.872-3.079,2.174c-0.076-0.208-0.128-0.337-0.132-0.345c-0.556-1.128-1.681-1.828-2.938-1.828   c-0.504,0-0.99,0.113-1.444,0.337c-0.784,0.387-1.371,1.057-1.653,1.884c-0.281,0.828-0.224,1.716,0.163,2.499   c0.013,0.025,0.035,0.063,0.053,0.097c-0.326-0.105-0.663-0.162-1.005-0.162c-1.401,0-2.647,0.893-3.099,2.222   c-0.581,1.709,0.337,3.571,2.045,4.151c0.077,0.026,0.174,0.053,0.271,0.08c-0.034,0.016-0.082,0.033-0.113,0.049   c-0.784,0.386-1.372,1.055-1.653,1.882c-0.281,0.828-0.224,1.717,0.163,2.501c0.556,1.127,1.681,1.828,2.938,1.828   c0.479,0,0.941-0.106,1.377-0.309c-0.152,0.717-0.077,1.457,0.252,2.125c0.387,0.784,1.055,1.371,1.883,1.652   c0.342,0.116,0.695,0.175,1.054,0.175c1.271,0,2.407-0.736,2.945-1.862c0.567,1.085,1.667,1.758,2.897,1.758   c0.504,0,0.99-0.113,1.445-0.338c1.619-0.796,2.287-2.763,1.491-4.383c-0.017-0.032-0.043-0.08-0.068-0.126   c0.163,0.075,0.263,0.118,0.271,0.121c0.341,0.116,0.695,0.175,1.055,0.175c1.401,0,2.647-0.893,3.099-2.221   C68.688,18.185,67.79,16.346,66.11,15.746z M64.286,11.787c0.534-0.266,1.202-0.029,1.461,0.495   c0.266,0.54,0.042,1.196-0.497,1.462c-0.649,0.32-3.06,0.957-4.407,0.946C61.55,13.759,63.448,12.199,64.286,11.787z M58.862,8.665   c0.15-0.442,0.565-0.739,1.033-0.739c0.118,0,0.236,0.019,0.352,0.059c0.275,0.094,0.498,0.29,0.627,0.551   c0.129,0.262,0.149,0.557,0.055,0.833c-0.303,0.889-1.614,2.987-2.445,3.802C58.32,12.018,58.561,9.554,58.862,8.665z    M53.267,8.039c0.151-0.075,0.313-0.112,0.479-0.112c0.421,0,0.795,0.233,0.981,0.609c0.414,0.842,0.97,3.253,0.958,4.415   c-0.93-0.698-2.502-2.609-2.916-3.451C52.504,8.961,52.727,8.306,53.267,8.039z M48.881,14.156   c-0.129-0.262-0.148-0.559-0.055-0.835c0.15-0.442,0.566-0.74,1.033-0.74c0.119,0,0.238,0.02,0.353,0.059   c0.884,0.302,2.968,1.603,3.788,2.434c-0.229,0.033-0.554,0.06-0.999,0.06c-1.365,0-2.98-0.253-3.492-0.427   C49.232,14.612,49.01,14.416,48.881,14.156z M50.893,20.815c-0.535,0.264-1.202,0.029-1.461-0.497   c-0.13-0.261-0.149-0.558-0.056-0.832c0.094-0.276,0.291-0.5,0.552-0.628c0.642-0.316,2.974-0.947,4.354-0.947   c0.018,0,0.036,0,0.054,0C53.628,18.843,51.73,20.403,50.893,20.815z M56.011,23.833c-0.188,0.555-0.816,0.873-1.385,0.682   c-0.275-0.094-0.499-0.29-0.627-0.552c-0.13-0.262-0.149-0.558-0.056-0.833c0.303-0.888,1.615-2.987,2.445-3.801   C56.553,20.48,56.312,22.944,56.011,23.833z M56.969,17.627c-0.763-0.259-1.168-1.085-0.91-1.847   c0.259-0.761,1.085-1.168,1.846-0.908c0.762,0.259,1.168,1.085,0.909,1.845C58.556,17.479,57.729,17.885,56.969,17.627z    M61.302,24.354c-0.535,0.262-1.202,0.029-1.462-0.496c-0.414-0.842-0.97-3.254-0.958-4.417c0.93,0.699,2.503,2.611,2.916,3.452   C62.064,23.434,61.841,24.09,61.302,24.354z M66.046,19.177c-0.189,0.556-0.822,0.872-1.385,0.683   c-0.884-0.302-2.968-1.603-3.789-2.435c0.229-0.033,0.555-0.06,0.999-0.06c1.366,0,2.98,0.253,3.493,0.427   c0.276,0.094,0.498,0.29,0.628,0.551C66.12,18.604,66.141,18.9,66.046,19.177z"></path>
    <path fill="#000000" d="M66.385,58.779l-4.858-2.111c0.419-6.196,4.496-9.391,4.691-9.54c0.659-0.497,0.793-1.434,0.298-2.096   c-0.497-0.663-1.437-0.797-2.1-0.303c-0.224,0.168-4.894,3.756-5.778,10.683l-6.784-2.948c-0.729-11.133-8.449-15.743-8.785-15.937   l-1.505,2.595c0.263,0.155,5.975,3.626,7.146,11.975l-7.825-3.4c-0.551-0.238-1.195-0.127-1.632,0.289s-0.582,1.053-0.369,1.616   c1.736,4.604,9.397,29.173,10.032,37.266c0.058,0.743,0.656,1.309,1.389,1.362l0.337,6.186c0.044,0.8,0.706,1.419,1.497,1.419   c0.027,0,0.055-0.001,0.082-0.002c0.828-0.045,1.462-0.752,1.417-1.579L53.31,88.25h1.632l0.334,4.203   c0.062,0.785,0.719,1.381,1.493,1.381c0.04,0,0.08-0.002,0.121-0.005c0.825-0.065,1.441-0.788,1.376-1.614l-0.322-4.046   c0.559-0.172,0.987-0.646,1.056-1.253c0.691-6.216,8.117-26.034,8.192-26.233C67.473,59.935,67.118,59.098,66.385,58.779z    M56.22,85.25h-4.463c-1.089-8.244-6.419-25.766-8.947-33.445l15.755,6.848l2.088,0.906l3.234,1.406   C62.291,65.293,57.407,78.81,56.22,85.25z"></path>
    <path fill="#000000" d="M53.187,55.571c-1.571-9.745,0.055-15.087,1.488-19.8c1.127-3.706,2.101-6.906,1.329-11.782l2.963-0.469   c0.88,5.558-0.238,9.232-1.422,13.124c-1.404,4.616-2.857,9.39-1.397,18.45L53.187,55.571z"></path>
</g>
</svg>