<?xml version="1.0" encoding="iso-8859-1"?>
<!-- Generator: Adobe Illustrator 16.0.0, SVG Export Plug-In . SVG Version: 6.00 Build 0)  -->
<!DOCTYPE svg PUBLIC "-//W3C//DTD SVG 1.1//EN" "http://www.w3.org/Graphics/SVG/1.1/DTD/svg11.dtd">
<svg version="1.1" id="Capa_1" xmlns="http://www.w3.org/2000/svg" xmlns:xlink="http://www.w3.org/1999/xlink" x="0px" y="0px"
	 width="85px" height="85px" viewBox="0 0 437.162 437.162" fill="#D98877"
	 xml:space="preserve">
<g>
	<path d="M369.425,428.27l-8.52-31.611c-1.318-4.912-5.65-11.437-9.649-14.559l-18.234-14.25c-4.016-3.13-7.266-9.791-7.266-14.888
		V79.627c0-5.079,1.495-13.056,3.343-17.797l16.366-42.196c1.827-4.749,1.234-12.393-3.182-14.899
		c-4.669-2.661-12.512-5.056-25.483-4.699c-13.554,0.383-22.133,3.154-27.335,5.895c-4.5,2.368-6.403,6.578-5.555,7.858
		c0.493,0.713,1.006,1.537,1.427,2.376c1.143,2.3-76.019,8.824-117.862,67.946c-37.081,52.393-40.099,67.695-57.667,57.406
		c-4.396-2.572-10.479-8.413-15.271-10.15c-5.4-1.954-13.439-2.256-23.393,5.033c-4.114,3.01-4.789,9.588-2.152,13.934
		l169.073,278.945c2.633,4.355,8.896,7.883,13.986,7.883h110.557C367.699,437.162,370.752,433.174,369.425,428.27z M290.784,65.647
		l-32.516,300.222c-1.487-1.522-3.026-3.165-4.613-4.864l32.06-296.059C287.394,65.152,289.065,65.365,290.784,65.647z
		 M215.955,81.785c1.79-1.176,3.633-2.33,5.516-3.438l-23.433,216.303c-1.499-1.907-3.014-3.811-4.519-5.734L215.955,81.785z
		 M188.091,282.002c-1.499-1.932-3.013-3.867-4.512-5.799l20.047-185.115c1.813-1.529,3.693-3.036,5.639-4.512L188.091,282.002z
		 M228.04,74.816c1.764-0.89,3.559-1.729,5.414-2.523l-25.437,234.868c-1.507-1.872-3.014-3.755-4.528-5.671L228.04,74.816z
		 M239.902,69.745c1.747-0.613,3.526-1.188,5.334-1.713l-27.235,251.456c-1.499-1.823-3.02-3.694-4.546-5.578L239.902,69.745z
		 M251.591,66.391c1.728-0.375,3.475-0.697,5.258-0.98l-28.838,266.208c-1.494-1.787-3.021-3.627-4.552-5.482L251.591,66.391z
		 M263.105,64.585c1.703-0.165,3.438-0.269,5.186-0.345l-30.236,279.236c-1.495-1.739-3.021-3.527-4.572-5.351L263.105,64.585z
		 M274.482,64.165c1.687,0.022,3.39,0.1,5.113,0.202l-31.471,290.594c-1.494-1.679-3.018-3.39-4.584-5.157L274.482,64.165z
		 M196.774,97.26l-18.619,171.946c-1.511-1.939-3.024-3.879-4.517-5.834l17.358-160.27C192.833,101.155,194.75,99.208,196.774,97.26
		z M168.223,256.335c-1.504-1.972-3.016-3.928-4.506-5.888l14.305-132.116c1.813-2.327,3.777-4.779,5.941-7.348L168.223,256.335z
		 M170.808,127.987l-12.501,115.36c-1.506-1.983-3.011-3.955-4.496-5.919L164.8,135.93c1.25-1.599,2.519-3.258,3.813-4.991
		C169.275,130.077,170.014,129.061,170.808,127.987z M151.871,150.737c1.917-1.859,3.845-3.917,5.809-6.155l-9.285,85.717
		c-1.517-2.017-3.016-3.996-4.5-5.964L151.871,150.737z M101.1,158.698c8.191,3.089,20.576,6.774,29.136,4.873
		c5.276-1.17,10.109-3.522,14.835-7.019l-6.562,60.59c-18.094-24.082-32.901-44.246-40.461-54.575
		C95.033,158.469,96.344,156.908,101.1,158.698z M279.687,382.652c-2.949,0-8.476-4.115-15.845-11.208l32.989-304.627
		c2.528,0.555,5.073,1.192,7.682,1.939l-3.827,276.783C300.686,345.54,301.7,382.652,279.687,382.652z"/>
</g>
</svg>
